<svg xmlns="http://www.w3.org/2000/svg" viewBox="0 0 90 90"><defs><style>.cls-1{fill:#2181e1;}.cls-2{fill:#fcfdfe;}.cls-3{fill:#fafcfe;}</style></defs><g id="Layer_2" data-name="Layer 2"><g id="Layer_1-2" data-name="Layer 1"><path class="cls-1" d="M49,90H40.5c-1.2-.25-2.39-.53-3.59-.73A45.07,45.07,0,0,1,1,54.32C.66,52.71.33,51.11,0,49.5v-9c.25-1.2.53-2.39.73-3.59A45.08,45.08,0,0,1,35.67,1l5.08-1h8.5A3.59,3.59,0,0,0,50,.26,45,45,0,0,1,89,35.67c.38,1.77.66,3.55,1,5.33v8.5c-.25,1.2-.53,2.39-.73,3.59A45.1,45.1,0,0,1,54.33,89C52.56,89.37,50.78,89.67,49,90ZM36.79,21.61c.31.66.51,1,.65,1.38,1.39,3.47,3,6.88,4.1,10.42a15.85,15.85,0,0,1-1.38,13.71c-1,1.73-2.07,3.48-3.29,5.53h6.91v5c-2.41,0-4.75.13-7.05,0a4.48,4.48,0,0,1-3.95-4.2c0-.37-.05-.73-.08-1.2-.5,0-.94-.07-1.39-.07H21.69c-3.14,0-3.18,0-2.58,3.22A15.08,15.08,0,0,0,34.18,68c7.46,0,14.91,0,22.37,0a8,8,0,0,0,6.84-3.21,66.58,66.58,0,0,0,4.21-6.18,12.22,12.22,0,0,1,5.26-4.81A2.93,2.93,0,0,0,74,49.49c-3.65,1.06-7.3,2.21-11,3.15a10.14,10.14,0,0,0-5,2.94,6.8,6.8,0,0,1-3.32,2,31.52,31.52,0,0,1-5.59.08v-5c1.13,0,2.17,0,3.2,0a2.05,2.05,0,0,0,1.31-.52A79.8,79.8,0,0,0,59,45.53a8.68,8.68,0,0,0,.56-8.92,25,25,0,0,0-7.9-9.68c-2.22-1.67-3.06-3.41-2.75-6.08A2.46,2.46,0,0,0,46.46,18c-1.53,0-2.54,1.1-2.58,2.88,0,.82,0,1.63,0,2.59Zm-2.45,5.92L22,46.8c.35.2.43.27.5.27,3.91,0,7.82,0,11.73,0a1,1,0,0,0,.74-.33c1.32-2.3,2.83-4.54,2.83-7.35,0-4-1.4-7.73-3-11.36C34.77,27.93,34.62,27.84,34.34,27.53Z"/><path class="cls-2" d="M36.79,21.61l7.08,1.86c0-1,0-1.77,0-2.59,0-1.78,1-2.9,2.58-2.88a2.46,2.46,0,0,1,2.45,2.85c-.31,2.67.53,4.41,2.75,6.08a25,25,0,0,1,7.9,9.68A8.68,8.68,0,0,1,59,45.53a79.8,79.8,0,0,1-5.44,6.63,2.05,2.05,0,0,1-1.31.52c-1,.08-2.07,0-3.2,0v5a31.52,31.52,0,0,0,5.59-.08,6.8,6.8,0,0,0,3.32-2,10.14,10.14,0,0,1,5-2.94c3.7-.94,7.35-2.09,11-3.15a2.93,2.93,0,0,1-1.14,4.29,12.22,12.22,0,0,0-5.26,4.81,66.58,66.58,0,0,1-4.21,6.18A8,8,0,0,1,56.55,68c-7.46-.07-14.91,0-22.37,0A15.08,15.08,0,0,1,19.11,55.39c-.6-3.17-.56-3.22,2.58-3.22h9.62c.45,0,.89,0,1.39.07,0,.47,0,.83.08,1.2a4.48,4.48,0,0,0,3.95,4.2c2.3.17,4.64,0,7.05,0v-5H36.87c1.22-2,2.24-3.8,3.29-5.53a15.85,15.85,0,0,0,1.38-13.71c-1.15-3.54-2.71-6.95-4.1-10.42C37.3,22.62,37.1,22.27,36.79,21.61Z"/><path class="cls-3" d="M34.34,27.53c.28.31.43.4.49.54,1.6,3.63,3,7.31,3,11.36,0,2.81-1.51,5-2.83,7.35a1,1,0,0,1-.74.33c-3.91,0-7.82,0-11.73,0-.07,0-.15-.07-.5-.27Z"/></g></g></svg>